<?xml version="1.0" encoding="UTF-8" standalone="no"?>
<!-- Created with Inkscape (http://www.inkscape.org/) -->

<svg
   width="26.45834mm"
   height="17.19791mm"
   viewBox="0 0 26.45834 17.197911"
   version="1.1"
   id="svg67884"
   inkscape:version="1.2 (dc2aedaf03, 2022-05-15)"
   sodipodi:docname="3columns.svg"
   xmlns:inkscape="http://www.inkscape.org/namespaces/inkscape"
   xmlns:sodipodi="http://sodipodi.sourceforge.net/DTD/sodipodi-0.dtd"
   xmlns="http://www.w3.org/2000/svg"
   xmlns:svg="http://www.w3.org/2000/svg">
  <sodipodi:namedview
     id="namedview67886"
     pagecolor="#ffffff"
     bordercolor="#000000"
     borderopacity="0.25"
     inkscape:showpageshadow="2"
     inkscape:pageopacity="0.0"
     inkscape:pagecheckerboard="0"
     inkscape:deskcolor="#d1d1d1"
     inkscape:document-units="mm"
     showgrid="false"
     inkscape:zoom="0.73851712"
     inkscape:cx="-372.36781"
     inkscape:cy="-21.665036"
     inkscape:window-width="1920"
     inkscape:window-height="1009"
     inkscape:window-x="-8"
     inkscape:window-y="-8"
     inkscape:window-maximized="1"
     inkscape:current-layer="layer1" />
  <defs
     id="defs67881" />
  <g
     inkscape:label="Layer 1"
     inkscape:groupmode="layer"
     id="layer1"
     transform="translate(-176.37157,-154.38129)">
    <path
       id="path68108"
       style="fill:#ffffff;fill-opacity:1;stroke-width:1.09782;stroke-linecap:round;stroke-linejoin:round"
       d="m 177.17266,154.38129 c -0.4436,0 -0.80109,0.35523 -0.80109,0.796 v 15.60641 c 0,0.44081 0.35749,0.7955 0.80109,0.7955 h 5.62542 c 0.44363,0 0.80112,-0.35469 0.80112,-0.7955 v -15.60641 c 0,-0.44077 -0.35749,-0.796 -0.80112,-0.796 z"
       sodipodi:nodetypes="sssssssss" />
    <path
       id="path68110"
       style="fill:#ffffff;fill-opacity:1;stroke-width:1.09782;stroke-linecap:round;stroke-linejoin:round"
       d="m 186.81453,154.38129 c -0.44363,0 -0.80109,0.35523 -0.80109,0.796 v 15.60641 c 0,0.44081 0.35746,0.7955 0.80109,0.7955 h 5.62542 c 0.4436,0 0.80109,-0.35469 0.80109,-0.7955 v -15.60641 c 0,-0.44077 -0.35749,-0.796 -0.80109,-0.796 z"
       sodipodi:nodetypes="sssssssss" />
    <path
       id="path68112"
       style="fill:#ffffff;fill-opacity:1;stroke-width:1.09782;stroke-linecap:round;stroke-linejoin:round"
       d="m 196.4034,154.38129 c -0.44363,0 -0.80112,0.35523 -0.80112,0.796 v 15.60641 c 0,0.44081 0.35749,0.7955 0.80112,0.7955 h 5.62542 c 0.4436,0 0.80109,-0.35469 0.80109,-0.7955 v -15.60641 c 0,-0.44077 -0.35749,-0.796 -0.80109,-0.796 z"
       sodipodi:nodetypes="sssssssss" />
  </g>
</svg>
