<?xml version="1.0" encoding="UTF-8" standalone="no"?>
<!-- Created with Inkscape (http://www.inkscape.org/) -->

<svg
   width="26.45834mm"
   height="17.19791mm"
   viewBox="0 0 26.45834 17.197911"
   version="1.1"
   id="svg67884"
   inkscape:version="1.2 (dc2aedaf03, 2022-05-15)"
   sodipodi:docname="customcode.svg"
   xml:space="preserve"
   xmlns:inkscape="http://www.inkscape.org/namespaces/inkscape"
   xmlns:sodipodi="http://sodipodi.sourceforge.net/DTD/sodipodi-0.dtd"
   xmlns="http://www.w3.org/2000/svg"
   xmlns:svg="http://www.w3.org/2000/svg"><sodipodi:namedview
     id="namedview67886"
     pagecolor="#ffffff"
     bordercolor="#000000"
     borderopacity="0.25"
     inkscape:showpageshadow="2"
     inkscape:pageopacity="0.0"
     inkscape:pagecheckerboard="0"
     inkscape:deskcolor="#d1d1d1"
     inkscape:document-units="mm"
     showgrid="false"
     inkscape:zoom="1.4770342"
     inkscape:cx="-67.703238"
     inkscape:cy="-20.988004"
     inkscape:window-width="1920"
     inkscape:window-height="1009"
     inkscape:window-x="-8"
     inkscape:window-y="-8"
     inkscape:window-maximized="1"
     inkscape:current-layer="layer1" /><defs
     id="defs67881" /><g
     inkscape:label="Layer 1"
     inkscape:groupmode="layer"
     id="layer1"
     transform="translate(-223.38365,-190.92217)"><path
       id="path68359"
       style="fill:#ffffff;fill-opacity:1;stroke-width:1.1094;stroke-linecap:round;stroke-linejoin:round"
       d="m 224.20176,190.92217 c -0.45302,0 -0.81811,0.3552 -0.81811,0.79601 v 15.6064 c 0,0.44081 0.36509,0.7955 0.81811,0.7955 h 24.82215 c 0.45302,0 0.81808,-0.35469 0.81808,-0.7955 v -15.6064 c 0,-0.44081 -0.36506,-0.79601 -0.81808,-0.79601 z"
       sodipodi:nodetypes="sssssssss" /><rect
       style="fill:#eaedf8;fill-opacity:1;stroke:none;stroke-width:0.261783;stroke-linecap:round;stroke-linejoin:round;stroke-dasharray:none;paint-order:stroke fill markers"
       id="rect1006"
       width="18.684948"
       height="2.5383914"
       x="227.47127"
       y="202.96317"
       ry="0.58784431" /><rect
       style="fill:#eaedf8;fill-opacity:1;stroke:none;stroke-width:0.449858;stroke-linecap:round;stroke-linejoin:round;stroke-dasharray:none;paint-order:stroke fill markers"
       id="rect1450"
       width="18.684948"
       height="7.4959421"
       x="227.47127"
       y="193.84317"
       ry="1.0813376" /><path
       id="path1237"
       style="fill:#577bf9;fill-opacity:1;stroke-width:0.0173288"
       d="m 237.08826,195.34789 c -0.0543,3e-4 -0.10912,0.008 -0.14733,0.0245 -0.11346,0.0474 -0.10933,0.0336 -0.50965,1.69014 -0.12552,0.51943 -0.2972,1.22905 -0.3815,1.57693 -0.0843,0.34788 -0.16627,0.70182 -0.18213,0.7865 -0.0419,0.22388 -0.0129,0.33436 0.10107,0.38391 0.0303,0.0132 0.10572,0.0242 0.16767,0.0245 0.14232,6.4e-4 0.21415,-0.0391 0.26081,-0.14452 0.0331,-0.0747 0.13724,-0.48419 0.42158,-1.65694 0.082,-0.33834 0.20021,-0.82572 0.26264,-1.08305 0.30578,-1.26048 0.30593,-1.26125 0.29872,-1.36442 -0.008,-0.11152 -0.0502,-0.17343 -0.14716,-0.21475 -0.0365,-0.0156 -0.0904,-0.0231 -0.14472,-0.0228 z m -1.62861,0.6279 c -6.4e-4,-2.9e-4 -0.002,-2.2e-4 -0.003,2.4e-4 -0.0121,0.005 -0.11165,0.0482 -0.22125,0.0958 -0.10961,0.0476 -0.50731,0.22014 -0.88378,0.38347 -0.37647,0.16332 -0.94767,0.41117 -1.26934,0.55076 l -0.58485,0.25381 v 0.35856 0.35853 l 0.20362,0.0878 c 0.11198,0.0483 0.42195,0.1825 0.68882,0.29827 0.26686,0.11578 0.71135,0.30849 0.98774,0.42828 0.2764,0.11979 0.63121,0.2743 0.78847,0.34337 0.15726,0.0691 0.29177,0.12627 0.29892,0.12712 0.007,6.3e-4 0.013,-0.18504 0.013,-0.41305 v -0.41457 l -0.34225,-0.134 c -0.18823,-0.0737 -0.58398,-0.22944 -0.87944,-0.34607 -0.29545,-0.11664 -0.60348,-0.23726 -0.68449,-0.26805 -0.081,-0.0308 -0.1532,-0.0614 -0.16042,-0.0678 -0.007,-0.007 0.45285,-0.19129 1.0224,-0.41068 l 1.03553,-0.39889 0.004,-0.42088 c 0.003,-0.31366 4.7e-4,-0.40745 -0.0142,-0.41193 z m 2.2996,0.0124 c -0.007,0 -0.01,0.1844 -0.007,0.40977 l 0.004,0.40977 0.7538,0.29174 c 0.41459,0.16046 0.88052,0.34055 1.0354,0.40019 0.15488,0.0596 0.28158,0.11242 0.28156,0.11728 -3e-5,0.008 -0.26727,0.11483 -1.46426,0.5836 -0.27639,0.10824 -0.52787,0.20827 -0.55885,0.22229 l -0.0563,0.0255 v 0.40751 c 0,0.22412 0.007,0.4075 0.0147,0.4075 0.008,0 0.24005,-0.0982 0.51553,-0.21828 0.27548,-0.12005 0.73872,-0.32176 1.02941,-0.44824 0.29069,-0.12649 0.72933,-0.3177 0.97475,-0.42494 l 0.44622,-0.19495 v -0.35808 -0.35805 l -0.0477,-0.0188 c -0.0262,-0.0103 -0.39467,-0.16883 -0.81879,-0.3522 -1.4338,-0.61988 -2.09091,-0.90164 -2.10285,-0.90164 z" /></g></svg>
