<?xml version="1.0" encoding="UTF-8" standalone="no"?>
<!-- Created with Inkscape (http://www.inkscape.org/) -->

<svg
   width="137.25114mm"
   height="95.641708mm"
   viewBox="0 0 137.25114 95.641708"
   version="1.1"
   id="svg5"
   xml:space="preserve"
   inkscape:version="1.2 (dc2aedaf03, 2022-05-15)"
   sodipodi:docname="imgplaceholder.svg"
   xmlns:inkscape="http://www.inkscape.org/namespaces/inkscape"
   xmlns:sodipodi="http://sodipodi.sourceforge.net/DTD/sodipodi-0.dtd"
   xmlns="http://www.w3.org/2000/svg"
   xmlns:svg="http://www.w3.org/2000/svg"><sodipodi:namedview
     id="namedview7"
     pagecolor="#ffffff"
     bordercolor="#000000"
     borderopacity="0.25"
     inkscape:showpageshadow="2"
     inkscape:pageopacity="0.0"
     inkscape:pagecheckerboard="0"
     inkscape:deskcolor="#d1d1d1"
     inkscape:document-units="mm"
     showgrid="false"
     inkscape:zoom="1.0444209"
     inkscape:cx="129.73696"
     inkscape:cy="208.72811"
     inkscape:window-width="1920"
     inkscape:window-height="1009"
     inkscape:window-x="-8"
     inkscape:window-y="-8"
     inkscape:window-maximized="1"
     inkscape:current-layer="layer1" /><defs
     id="defs2" /><g
     inkscape:label="Layer 1"
     inkscape:groupmode="layer"
     id="layer1"
     transform="translate(-31.892651,-30.101337)"><rect
       style="fill:#f6f6fa;fill-opacity:1;stroke:none;stroke-width:0.783498;stroke-linecap:round;stroke-linejoin:round;paint-order:stroke fill markers"
       id="rect234"
       width="137.25114"
       height="95.641708"
       x="31.892651"
       y="30.101337"
       ry="2.7124057" /><path
       id="rect4577"
       style="color:#000000;opacity:0.24;fill:#9c9cb2;stroke-width:1.11034;stroke-linecap:round;stroke-linejoin:round;paint-order:stroke fill markers"
       d="m 88.887158,64.625947 c -0.947413,0 -1.735128,0.787142 -1.735128,1.734555 v 23.287099 c 0,0.947412 0.787715,1.734554 1.735128,1.734554 h 27.172782 c 0.94741,0 1.73514,-0.787142 1.73514,-1.734554 V 66.360502 c 0,-0.947413 -0.78773,-1.734555 -1.73514,-1.734555 z m 0,1.602584 h 27.172782 c 0.0882,0 0.13484,0.04382 0.13484,0.131971 v 14.949417 l -6.13319,-5.938684 a 0.80058768,0.80058768 0 0 0 -0.56805,-0.225498 0.80058768,0.80058768 0 0 0 -0.56403,0.242712 l -7.90275,8.171857 -5.369502,-5.215712 a 0.80058768,0.80058768 0 0 0 -1.10798,-0.0087 l -5.796959,5.473343 V 66.360502 c 0,-0.08815 0.0467,-0.131971 0.134839,-0.131971 z m 12.202712,4.458316 c -1.720824,0 -3.133453,1.41091 -3.133453,3.131724 0,1.720812 1.412629,3.133444 3.133453,3.133444 1.72081,0 3.13402,-1.412632 3.13402,-3.133444 0,-1.720814 -1.41321,-3.131724 -3.13402,-3.131724 z m 0,1.600862 c 0.85556,0 1.53316,0.6753 1.53316,1.530862 0,0.855561 -0.6776,1.533155 -1.53316,1.533155 -0.85556,0 -1.530867,-0.677594 -1.530867,-1.533155 0,-0.855562 0.675307,-1.530862 1.530867,-1.530862 z m 8.43408,4.790539 6.67083,6.460828 v 6.108525 c 0,0.08815 -0.0466,0.134266 -0.13484,0.134266 H 88.887158 c -0.08815,0 -0.134839,-0.04612 -0.134839,-0.134266 v -3.635508 l 6.339186,-5.984586 5.395315,5.239238 a 0.80058768,0.80058768 0 0 0 1.13208,-0.01721 z" /><rect
       style="opacity:0.122353;fill:#567af8;fill-opacity:1;stroke:none;stroke-width:0.345352;stroke-linecap:round;stroke-linejoin:round;stroke-dasharray:none;stroke-opacity:1;paint-order:stroke fill markers"
       id="rect12015"
       width="35.557602"
       height="5.1202941"
       x="126.35416"
       y="37.666603"
       ry="2.560147" /><text
       xml:space="preserve"
       style="font-size:2.19054px;line-height:1.26;font-family:Arial;-inkscape-font-specification:Arial;fill:#567af8;fill-opacity:1;stroke:none;stroke-width:0.971889;stroke-linecap:round;stroke-linejoin:round;stroke-dasharray:none;stroke-opacity:1;paint-order:stroke fill markers"
       x="129.52986"
       y="41.075321"
       id="text4769"><tspan
         sodipodi:role="line"
         id="tspan4767"
         style="font-style:normal;font-variant:normal;font-weight:normal;font-stretch:normal;font-size:2.19054px;font-family:'FONTSPRING DEMO - Averta CY Semibold';-inkscape-font-specification:'FONTSPRING DEMO - Averta CY Semibold, ';fill:#567af8;fill-opacity:1;stroke:none;stroke-width:0.971889"
         x="129.52986"
         y="41.075321">DOUBLE CLICK TO REPLACE</tspan></text></g></svg>
