<?xml version="1.0" encoding="UTF-8" standalone="no"?>
<!-- Created with Inkscape (http://www.inkscape.org/) -->

<svg
   width="26.45833mm"
   height="17.19792mm"
   viewBox="0 0 26.45833 17.197921"
   version="1.1"
   id="svg67884"
   inkscape:version="1.2 (dc2aedaf03, 2022-05-15)"
   sodipodi:docname="link.svg"
   xmlns:inkscape="http://www.inkscape.org/namespaces/inkscape"
   xmlns:sodipodi="http://sodipodi.sourceforge.net/DTD/sodipodi-0.dtd"
   xmlns="http://www.w3.org/2000/svg"
   xmlns:svg="http://www.w3.org/2000/svg">
  <sodipodi:namedview
     id="namedview67886"
     pagecolor="#ffffff"
     bordercolor="#000000"
     borderopacity="0.25"
     inkscape:showpageshadow="2"
     inkscape:pageopacity="0.0"
     inkscape:pagecheckerboard="0"
     inkscape:deskcolor="#d1d1d1"
     inkscape:document-units="mm"
     showgrid="false"
     inkscape:zoom="0.73851712"
     inkscape:cx="-329.03774"
     inkscape:cy="-59.578849"
     inkscape:window-width="1920"
     inkscape:window-height="1009"
     inkscape:window-x="-8"
     inkscape:window-y="-8"
     inkscape:window-maximized="1"
     inkscape:current-layer="layer1" />
  <defs
     id="defs67881" />
  <g
     inkscape:label="Layer 1"
     inkscape:groupmode="layer"
     id="layer1"
     transform="translate(-164.96025,-164.41136)">
    <path
       id="path68256"
       style="fill:#ffffff;fill-opacity:1;stroke-width:1.1094;stroke-linecap:round;stroke-linejoin:round"
       d="m 165.77835,164.41136 c -0.45302,0 -0.8181,0.3552 -0.8181,0.79601 v 15.60641 c 0,0.4408 0.36508,0.7955 0.8181,0.7955 h 24.82215 c 0.45303,0 0.81808,-0.3547 0.81808,-0.7955 v -15.60641 c 0,-0.44081 -0.36505,-0.79601 -0.81808,-0.79601 z"
       sodipodi:nodetypes="sssssssss" />
    <g
       aria-label="Link"
       id="g68266"
       style="font-size:10.2596px;line-height:0%;letter-spacing:0px;word-spacing:0px;fill:#577bf9;stroke-width:0.63136px"
       transform="matrix(0.28222223,0,0,0.28222223,1157.5914,-221.99572)">
      <path
         d="m -3502.9988,1418.8593 h 4.4937 v -0.8106 h -3.6011 v -6.4738 h -0.8926 z"
         style="font-weight:bold;line-height:0.54;font-family:'FONTSPRING DEMO - Averta CY';-inkscape-font-specification:'FONTSPRING DEMO - Averta CY Bold'"
         id="path68258" />
      <path
         d="m -3496.9251,1412.9497 c 0.3386,0 0.6053,-0.2667 0.6053,-0.595 0,-0.3283 -0.2667,-0.5951 -0.6053,-0.5951 -0.3386,0 -0.6053,0.2668 -0.6053,0.5951 0,0.3283 0.2667,0.595 0.6053,0.595 z m -0.4206,5.9096 h 0.831 v -4.9965 h -0.831 z"
         style="font-weight:bold;line-height:0.54;font-family:'FONTSPRING DEMO - Averta CY';-inkscape-font-specification:'FONTSPRING DEMO - Averta CY Bold'"
         id="path68260" />
      <path
         d="m -3494.8937,1418.8593 h 0.831 v -2.4931 c 0,-1.1286 0.6156,-1.8057 1.5595,-1.8057 0.7284,0 1.2312,0.4001 1.2312,1.5697 v 2.7291 h 0.831 v -2.9651 c 0,-1.4261 -0.7182,-2.0929 -1.7954,-2.0929 -0.7695,0 -1.4261,0.3591 -1.816,0.9644 h -0.01 v -0.9029 h -0.831 z"
         style="font-weight:bold;line-height:0.54;font-family:'FONTSPRING DEMO - Averta CY';-inkscape-font-specification:'FONTSPRING DEMO - Averta CY Bold'"
         id="path68262" />
      <path
         d="m -3488.9842,1418.8593 h 0.8311 v -1.2415 l 1.0259,-1.108 1.5082,2.3495 h 0.9541 l -1.8877,-2.9343 1.8672,-2.0622 h -1.0054 l -2.4521,2.7393 -0.01,-0.01 v -5.2837 h -0.8311 z"
         style="font-weight:bold;line-height:0.54;font-family:'FONTSPRING DEMO - Averta CY';-inkscape-font-specification:'FONTSPRING DEMO - Averta CY Bold'"
         id="path68264" />
    </g>
    <path
       style="fill-opacity:1;stroke:#577bf9;stroke-width:0.227066;stroke-linecap:round;stroke-linejoin:round;stroke-dasharray:none"
       d="m 168.94856,178.94369 h 5.21174"
       id="path68268" />
    <rect
       style="fill:#eaedf8;fill-opacity:1;stroke:none;stroke-width:0.264583;stroke-linecap:round;stroke-linejoin:round;stroke-dasharray:none;paint-order:stroke fill markers"
       id="rect68270"
       width="19.086756"
       height="2.5383914"
       x="168.64606"
       y="167.56335"
       ry="0.3661792" />
    <rect
       style="fill:#eaedf8;fill-opacity:1;stroke:none;stroke-width:0.264583;stroke-linecap:round;stroke-linejoin:round;stroke-dasharray:none;paint-order:stroke fill markers"
       id="rect68272"
       width="19.086756"
       height="2.5383914"
       x="168.64606"
       y="171.79669"
       ry="0.3661792" />
  </g>
</svg>
