<?xml version="1.0" encoding="UTF-8" standalone="no"?>
<!-- Created with Inkscape (http://www.inkscape.org/) -->

<svg
   width="26.45834mm"
   height="17.19792mm"
   viewBox="0 0 26.45834 17.197921"
   version="1.1"
   id="svg67884"
   inkscape:version="1.2 (dc2aedaf03, 2022-05-15)"
   sodipodi:docname="textarea.svg"
   xmlns:inkscape="http://www.inkscape.org/namespaces/inkscape"
   xmlns:sodipodi="http://sodipodi.sourceforge.net/DTD/sodipodi-0.dtd"
   xmlns="http://www.w3.org/2000/svg"
   xmlns:svg="http://www.w3.org/2000/svg">
  <sodipodi:namedview
     id="namedview67886"
     pagecolor="#ffffff"
     bordercolor="#000000"
     borderopacity="0.25"
     inkscape:showpageshadow="2"
     inkscape:pageopacity="0.0"
     inkscape:pagecheckerboard="0"
     inkscape:deskcolor="#d1d1d1"
     inkscape:document-units="mm"
     showgrid="false"
     inkscape:zoom="1.0444209"
     inkscape:cx="-200.11089"
     inkscape:cy="-148.4076"
     inkscape:window-width="1920"
     inkscape:window-height="1009"
     inkscape:window-x="-8"
     inkscape:window-y="-8"
     inkscape:window-maximized="1"
     inkscape:current-layer="layer1" />
  <defs
     id="defs67881" />
  <g
     inkscape:label="Layer 1"
     inkscape:groupmode="layer"
     id="layer1"
     transform="translate(-262.43904,-299.2734)">
    <path
       id="path69049"
       style="fill:#ffffff;fill-opacity:1;stroke-width:1.1094;stroke-linecap:round;stroke-linejoin:round"
       d="m 263.25712,299.2734 c -0.45302,0 -0.81808,0.35521 -0.81808,0.79601 v 15.60641 c 0,0.4408 0.36506,0.7955 0.81808,0.7955 h 24.82215 c 0.45303,0 0.81811,-0.3547 0.81811,-0.7955 v -15.60641 c 0,-0.4408 -0.36508,-0.79601 -0.81811,-0.79601 z"
       sodipodi:nodetypes="sssssssss" />
    <rect
       style="fill:#eaedf8;fill-opacity:1;stroke:none;stroke-width:0.428947;stroke-linecap:round;stroke-linejoin:round;stroke-dasharray:none;paint-order:stroke fill markers"
       id="rect69051"
       width="15.560411"
       height="8.1837187"
       x="267.90219"
       y="303.64792"
       ry="0.35374242" />
    <path
       style="color:#000000;fill:#577bf9;stroke-width:0.282222;stroke-linecap:round;stroke-linejoin:round;stroke-dasharray:1.05833, 1.05833;paint-order:stroke fill markers"
       d="m 268.25262,303.51577 h -0.0181 a 0.1323049,0.1323049 0 0 0 -0.003,0 c -0.13863,0.006 -0.2678,0.0715 -0.35441,0.18025 a 0.13229167,0.13229167 0 0 0 0.0209,0.1863 0.13229167,0.13229167 0 0 0 0.18576,-0.0215 c 0.0368,-0.0462 0.0989,-0.0775 0.15818,-0.0805 h 0.0138 0.003 1.05503 a 0.13229167,0.13229167 0 0 0 0.13228,-0.13228 0.13229167,0.13229167 0 0 0 -0.13228,-0.1323 h -1.05833 a 0.13229167,0.13229167 0 0 0 -0.003,0 0.13229167,0.13229167 0 0 0 -0.003,0 z m 2.12,0 a 0.13229167,0.13229167 0 0 0 -0.1323,0.1323 0.13229167,0.13229167 0 0 0 0.1323,0.13228 h 1.05833 a 0.13229167,0.13229167 0 0 0 0.13228,-0.13228 0.13229167,0.13229167 0 0 0 -0.13228,-0.1323 z m 2.11667,0 a 0.13229167,0.13229167 0 0 0 -0.13231,0.1323 0.13229167,0.13229167 0 0 0 0.13231,0.13228 h 1.05833 a 0.13229167,0.13229167 0 0 0 0.13228,-0.13228 0.13229167,0.13229167 0 0 0 -0.13228,-0.1323 z m 2.11666,0 a 0.13229167,0.13229167 0 0 0 -0.1323,0.1323 0.13229167,0.13229167 0 0 0 0.1323,0.13228 h 1.05834 a 0.13229167,0.13229167 0 0 0 0.13228,-0.13228 0.13229167,0.13229167 0 0 0 -0.13228,-0.1323 z m 2.11667,0 a 0.13229167,0.13229167 0 0 0 -0.1323,0.1323 0.13229167,0.13229167 0 0 0 0.1323,0.13228 h 1.05833 a 0.13229167,0.13229167 0 0 0 0.13228,-0.13228 0.13229167,0.13229167 0 0 0 -0.13228,-0.1323 z m 2.11667,0 a 0.13229167,0.13229167 0 0 0 -0.13231,0.1323 0.13229167,0.13229167 0 0 0 0.13231,0.13228 h 1.05833 a 0.13229167,0.13229167 0 0 0 0.13228,-0.13228 0.13229167,0.13229167 0 0 0 -0.13228,-0.1323 z m 2.11666,0 a 0.13229167,0.13229167 0 0 0 -0.1323,0.1323 0.13229167,0.13229167 0 0 0 0.1323,0.13228 h 1.05834 a 0.13229167,0.13229167 0 0 0 0.13228,-0.13228 0.13229167,0.13229167 0 0 0 -0.13228,-0.1323 z m 2.11501,0 a 0.13229167,0.13229167 0 0 0 -0.13064,0.13397 0.13229167,0.13229167 0 0 0 0.13394,0.13061 c 0.0346,0 0.0611,1.7e-4 0.0783,0.004 a 0.1323049,0.1323049 0 0 0 0.003,0 c 0.0572,0.0113 0.11311,0.0511 0.14331,0.1014 0.0203,0.0336 0.0321,0.0748 0.032,0.11464 v 0.46635 a 0.13229167,0.13229167 0 0 0 0.1323,0.13227 0.13229167,0.13229167 0 0 0 0.13228,-0.13227 v -0.46578 0 c 1.1e-4,-0.0882 -0.024,-0.17532 -0.07,-0.25135 -8e-5,-1.4e-4 0,1.4e-4 0,0 -0.0697,-0.11582 -0.18511,-0.19772 -0.31804,-0.22434 -0.0527,-0.011 -0.0987,-0.0104 -0.1356,-0.01 z m -15.16891,1.17133 a 0.13229167,0.13229167 0 0 0 -0.13228,0.13231 v 1.05833 a 0.13229167,0.13229167 0 0 0 0.13228,0.13228 0.13229167,0.13229167 0 0 0 0.1323,-0.13228 v -1.05833 a 0.13229167,0.13229167 0 0 0 -0.1323,-0.13231 z m 15.56083,0.70666 a 0.13229167,0.13229167 0 0 0 -0.13231,0.1323 v 1.05834 a 0.13229167,0.13229167 0 0 0 0.13231,0.13228 0.13229167,0.13229167 0 0 0 0.13228,-0.13228 v -1.05834 a 0.13229167,0.13229167 0 0 0 -0.13228,-0.1323 z m -15.56083,1.41001 a 0.13229167,0.13229167 0 0 0 -0.13228,0.13231 v 1.05833 a 0.13229167,0.13229167 0 0 0 0.13228,0.13228 0.13229167,0.13229167 0 0 0 0.1323,-0.13228 v -1.05833 a 0.13229167,0.13229167 0 0 0 -0.1323,-0.13231 z m 15.56083,0.70666 a 0.13229167,0.13229167 0 0 0 -0.13231,0.1323 v 1.05833 a 0.13229167,0.13229167 0 0 0 0.13231,0.13228 0.13229167,0.13229167 0 0 0 0.13228,-0.13228 v -1.05833 a 0.13229167,0.13229167 0 0 0 -0.13228,-0.1323 z m -15.56083,1.41001 a 0.13229167,0.13229167 0 0 0 -0.13228,0.1323 v 1.05834 a 0.13229167,0.13229167 0 0 0 0.13228,0.13227 0.13229167,0.13229167 0 0 0 0.1323,-0.13227 v -1.05834 a 0.13229167,0.13229167 0 0 0 -0.1323,-0.1323 z m 15.56083,0.70665 a 0.13229167,0.13229167 0 0 0 -0.13231,0.13231 v 1.05833 a 0.13229167,0.13229167 0 0 0 0.13231,0.13228 0.13229167,0.13229167 0 0 0 0.13228,-0.13228 v -1.05833 a 0.13229167,0.13229167 0 0 0 -0.13228,-0.13231 z m -15.56083,1.41001 a 0.13229167,0.13229167 0 0 0 -0.13228,0.13231 v 0.30756 c 0,0.12943 0.0506,0.25381 0.14278,0.34508 0.091,0.0914 0.2146,0.14227 0.3434,0.14165 h 0.19403 a 0.13229167,0.13229167 0 0 0 0.13228,-0.13228 0.13229167,0.13229167 0 0 0 -0.13228,-0.13231 h -0.19403 c -0.0562,0 -0.11661,-0.0243 -0.15598,-0.0639 -0.0398,-0.0394 -0.0648,-0.0993 -0.0645,-0.15545 v -0.30867 a 0.13229167,0.13229167 0 0 0 -0.1323,-0.1323 z m 14.52564,0.54074 c -0.11394,0.008 -0.23667,0.0625 -0.32301,0.17145 a 0.13229167,0.13229167 0 0 0 0.0215,0.1863 0.13229167,0.13229167 0 0 0 0.18576,-0.0215 c 0.0439,-0.0554 0.0775,-0.068 0.13507,-0.0722 0.0576,-0.004 0.1386,0.0113 0.22985,0.0364 0.18248,0.05 0.41393,0.15006 0.64273,0.038 a 0.13229167,0.13229167 0 0 0 0.0606,-0.17696 0.13229167,0.13229167 0 0 0 -0.17695,-0.0606 c -0.0935,0.0458 -0.25796,0 -0.45639,-0.0557 -0.0992,-0.0271 -0.20523,-0.0536 -0.31916,-0.0452 z m -12.91937,0.12127 a 0.13229167,0.13229167 0 0 0 -0.13231,0.13231 0.13229167,0.13229167 0 0 0 0.13231,0.13228 h 1.05833 a 0.13229167,0.13229167 0 0 0 0.13228,-0.13228 0.13229167,0.13229167 0 0 0 -0.13228,-0.13231 z m 2.11666,0 a 0.13229167,0.13229167 0 0 0 -0.1323,0.13231 0.13229167,0.13229167 0 0 0 0.1323,0.13228 h 1.05834 a 0.13229167,0.13229167 0 0 0 0.13227,-0.13228 0.13229167,0.13229167 0 0 0 -0.13227,-0.13231 z m 2.11667,0 a 0.13229167,0.13229167 0 0 0 -0.13231,0.13231 0.13229167,0.13229167 0 0 0 0.13231,0.13228 h 1.05833 a 0.13229167,0.13229167 0 0 0 0.13228,-0.13228 0.13229167,0.13229167 0 0 0 -0.13228,-0.13231 z m 2.11667,0 a 0.13229167,0.13229167 0 0 0 -0.13231,0.13231 0.13229167,0.13229167 0 0 0 0.13231,0.13228 h 1.05833 a 0.13229167,0.13229167 0 0 0 0.13228,-0.13228 0.13229167,0.13229167 0 0 0 -0.13228,-0.13231 z m 2.11666,0 a 0.13229167,0.13229167 0 0 0 -0.1323,0.13231 0.13229167,0.13229167 0 0 0 0.1323,0.13228 h 1.05834 a 0.13229167,0.13229167 0 0 0 0.13227,-0.13228 0.13229167,0.13229167 0 0 0 -0.13227,-0.13231 z m 2.11667,0 a 0.13229167,0.13229167 0 0 0 -0.13231,0.13231 0.13229167,0.13229167 0 0 0 0.13231,0.13228 h 1.05833 a 0.13229167,0.13229167 0 0 0 0.13228,-0.13228 0.13229167,0.13229167 0 0 0 -0.13228,-0.13231 z"
       id="path69053" />
  </g>
</svg>
