<?xml version="1.0" encoding="UTF-8" standalone="no"?>
<!-- Created with Inkscape (http://www.inkscape.org/) -->

<svg
   width="26.45834mm"
   height="17.19791mm"
   viewBox="0 0 26.45834 17.197911"
   version="1.1"
   id="svg67884"
   inkscape:version="1.2 (dc2aedaf03, 2022-05-15)"
   sodipodi:docname="text.svg"
   xmlns:inkscape="http://www.inkscape.org/namespaces/inkscape"
   xmlns:sodipodi="http://sodipodi.sourceforge.net/DTD/sodipodi-0.dtd"
   xmlns="http://www.w3.org/2000/svg"
   xmlns:svg="http://www.w3.org/2000/svg">
  <sodipodi:namedview
     id="namedview67886"
     pagecolor="#ffffff"
     bordercolor="#000000"
     borderopacity="0.25"
     inkscape:showpageshadow="2"
     inkscape:pageopacity="0.0"
     inkscape:pagecheckerboard="0"
     inkscape:deskcolor="#d1d1d1"
     inkscape:document-units="mm"
     showgrid="false"
     inkscape:zoom="0.73851712"
     inkscape:cx="-177.38248"
     inkscape:cy="2.7081295"
     inkscape:window-width="1920"
     inkscape:window-height="1009"
     inkscape:window-x="-8"
     inkscape:window-y="-8"
     inkscape:window-maximized="1"
     inkscape:current-layer="layer1" />
  <defs
     id="defs67881" />
  <g
     inkscape:label="Layer 1"
     inkscape:groupmode="layer"
     id="layer1"
     transform="translate(-124.80825,-147.93191)">
    <path
       id="path68162"
       style="fill:#ffffff;fill-opacity:1;stroke-width:1.1094;stroke-linecap:round;stroke-linejoin:round"
       d="m 125.62636,147.93191 c -0.45302,0 -0.81811,0.3552 -0.81811,0.796 v 15.60641 c 0,0.44081 0.36509,0.7955 0.81811,0.7955 h 24.82215 c 0.45302,0 0.81808,-0.35469 0.81808,-0.7955 v -15.60641 c 0,-0.4408 -0.36506,-0.796 -0.81808,-0.796 z"
       sodipodi:nodetypes="sssssssss" />
    <rect
       style="fill:#eaedf8;fill-opacity:1;stroke:none;stroke-width:0.19309;stroke-linecap:round;stroke-linejoin:round;stroke-dasharray:none;paint-order:stroke fill markers"
       id="rect68164"
       width="10.165471"
       height="2.5383914"
       x="129.72809"
       y="157.20071"
       ry="0.45972353" />
    <g
       aria-label="text"
       id="g68174"
       style="font-weight:bold;font-size:12.1707px;line-height:0.8;font-family:Arial;-inkscape-font-specification:'Arial Bold';fill:#577bf9;stroke-width:0.702157;stroke-linecap:round;stroke-linejoin:round;paint-order:stroke fill markers"
       transform="matrix(0.28222223,0,0,0.28222223,1161.0796,-238.4752)">
      <path
         d="m -3652.9224,1395.9624 c 0.4746,0 1.0101,-0.146 1.4239,-0.4138 l -0.1338,-0.8641 c -0.3408,0.2312 -0.6816,0.353 -0.9737,0.353 -0.4381,0 -0.572,-0.3287 -0.499,-0.925 l 0.4138,-3.3104 h 1.6796 l 0.085,-0.8398 h -1.6674 l 0.2556,-2.1299 -0.9737,0.1826 -0.2556,1.9473 h -0.6694 l -0.085,0.8398 h 0.6573 l -0.426,3.4686 c -0.1217,1.0102 0.2069,1.6917 1.1684,1.6917 z"
         style="font-style:italic;font-weight:normal;font-family:'FONTSPRING DEMO - Averta CY';-inkscape-font-specification:'FONTSPRING DEMO - Averta CY Italic'"
         id="path68166" />
      <path
         d="m -3648.1759,1395.074 c -0.7545,0 -1.3752,-0.4869 -1.4361,-1.3997 1.8378,-0.1704 3.9555,-0.6937 3.9555,-2.2394 0,-1.0953 -0.9858,-1.5457 -1.8256,-1.5457 -1.9108,0 -3.0914,1.6796 -3.0914,3.6147 0,1.5336 0.925,2.4585 2.3611,2.4585 1.0345,0 1.6918,-0.4016 2.3246,-1.0832 l -0.7667,-0.5476 c -0.4503,0.4868 -0.9128,0.7424 -1.5214,0.7424 z m 0.6451,-4.2963 c 0.426,0 0.8885,0.1704 0.8885,0.7059 0,0.9372 -1.5579,1.2658 -2.9332,1.3875 0.2191,-1.351 1.1319,-2.0934 2.0447,-2.0934 z"
         style="font-style:italic;font-weight:normal;font-family:'FONTSPRING DEMO - Averta CY';-inkscape-font-specification:'FONTSPRING DEMO - Averta CY Italic'"
         id="path68168" />
      <path
         d="m -3645.6443,1395.8894 h 1.1197 l 1.6552,-2.2029 h 0.024 l 1.0954,2.2029 h 1.1075 l -1.5578,-2.9575 2.2881,-2.9696 h -1.1806 l -1.5944,2.1785 h -0.024 l -1.071,-2.1785 h -1.1197 l 1.5456,2.9209 z"
         style="font-style:italic;font-weight:normal;font-family:'FONTSPRING DEMO - Averta CY';-inkscape-font-specification:'FONTSPRING DEMO - Averta CY Italic'"
         id="path68170" />
      <path
         d="m -3637.989,1395.9624 c 0.4747,0 1.0102,-0.146 1.424,-0.4138 l -0.1339,-0.8641 c -0.3408,0.2312 -0.6816,0.353 -0.9736,0.353 -0.4382,0 -0.5721,-0.3287 -0.499,-0.925 l 0.4138,-3.3104 h 1.6795 l 0.085,-0.8398 h -1.6674 l 0.2556,-2.1299 -0.9736,0.1826 -0.2556,1.9473 h -0.6694 l -0.085,0.8398 h 0.6572 l -0.426,3.4686 c -0.1217,1.0102 0.2069,1.6917 1.1684,1.6917 z"
         style="font-style:italic;font-weight:normal;font-family:'FONTSPRING DEMO - Averta CY';-inkscape-font-specification:'FONTSPRING DEMO - Averta CY Italic'"
         id="path68172" />
    </g>
    <rect
       style="fill:#eaedf8;fill-opacity:1;stroke:none;stroke-width:0.130003;stroke-linecap:round;stroke-linejoin:round;stroke-dasharray:none;paint-order:stroke fill markers"
       id="rect68176"
       width="4.6079912"
       height="2.5383914"
       x="-146.39684"
       y="157.20071"
       ry="0.45972353"
       transform="scale(-1,1)" />
  </g>
</svg>
