<?xml version="1.0" encoding="UTF-8" standalone="no"?>
<!-- Created with Inkscape (http://www.inkscape.org/) -->

<svg
   width="200mm"
   height="200.50819mm"
   viewBox="0 0 200 200.50819"
   version="1.1"
   id="svg5"
   xml:space="preserve"
   inkscape:version="1.2 (dc2aedaf03, 2022-05-15)"
   sodipodi:docname="welcome.svg"
   xmlns:inkscape="http://www.inkscape.org/namespaces/inkscape"
   xmlns:sodipodi="http://sodipodi.sourceforge.net/DTD/sodipodi-0.dtd"
   xmlns="http://www.w3.org/2000/svg"
   xmlns:svg="http://www.w3.org/2000/svg"><sodipodi:namedview
     id="namedview7"
     pagecolor="#ffffff"
     bordercolor="#000000"
     borderopacity="0.25"
     inkscape:showpageshadow="2"
     inkscape:pageopacity="0.0"
     inkscape:pagecheckerboard="0"
     inkscape:deskcolor="#d1d1d1"
     inkscape:document-units="mm"
     showgrid="false"
     inkscape:zoom="0.52221046"
     inkscape:cx="360.96558"
     inkscape:cy="294.90026"
     inkscape:window-width="1920"
     inkscape:window-height="1009"
     inkscape:window-x="-8"
     inkscape:window-y="-8"
     inkscape:window-maximized="1"
     inkscape:current-layer="layer1" /><defs
     id="defs2"><clipPath
       clipPathUnits="userSpaceOnUse"
       id="clipPath27576"><circle
         style="fill:#613e68;fill-opacity:1;stroke-width:0.275545;stroke-linecap:round;stroke-linejoin:round;paint-order:stroke fill markers"
         id="circle27578"
         cx="72.234543"
         cy="95.790329"
         r="20.823807" /></clipPath><clipPath
       clipPathUnits="userSpaceOnUse"
       id="clipPath27582"><ellipse
         style="fill:#613e68;fill-opacity:1;stroke-width:0.229873;stroke-linecap:round;stroke-linejoin:round;paint-order:stroke fill markers"
         id="circle27584"
         cx="-75.847153"
         cy="96.915894"
         rx="16.599125"
         ry="18.181332"
         transform="scale(-1,1)" /></clipPath><clipPath
       clipPathUnits="userSpaceOnUse"
       id="clipPath27592"><ellipse
         style="fill:#613e68;fill-opacity:1;stroke-width:0.229873;stroke-linecap:round;stroke-linejoin:round;paint-order:stroke fill markers"
         id="circle27594"
         cx="-75.847153"
         cy="96.915894"
         rx="16.599125"
         ry="18.181332"
         transform="scale(-1,1)" /></clipPath></defs><g
     inkscape:label="Layer 1"
     inkscape:groupmode="layer"
     id="layer1"
     transform="translate(-96.941134,544.41163)"><g
       id="g28675"
       transform="matrix(3.1247399,0,0,3.1247399,-39.740611,335.06179)"><circle
         style="fill:#ecedf6;fill-opacity:1;stroke-width:0.275544;stroke-linecap:round;stroke-linejoin:round;paint-order:stroke fill markers"
         id="path354"
         cx="79.399803"
         cy="-238.11076"
         r="20.823809" /><path
         id="path16803"
         style="fill:#ffb500;fill-opacity:1;stroke:none;stroke-width:0.765;stroke-linecap:round;stroke-linejoin:round;stroke-dasharray:none;stroke-opacity:0.252551;paint-order:stroke fill markers"
         d="m 87.505575,-261.53186 -0.581877,1.79111 c -0.07026,0.40879 -0.240298,0.71045 -0.895552,0.49247 l -3.403927,-0.93999 c -1.631972,-0.7431 -1.876124,0.26637 -1.925464,1.52239 l -0.179317,6.4487 c 0.148619,1.03911 -0.637355,2.45908 1.612305,2.64221 l 2.32854,0.44804 c 0.635416,2.23701 0.6762,4.50704 4.209562,6.58306 l -0.581877,2.14922 3.49281,0.5824 2.507857,-2.01539 c 3.180512,-0.50714 3.785384,-2.10374 4.881356,-3.49281 l 2.284099,0.53744 c 1.7999,0.39797 1.86656,-0.59092 2.50786,-1.11983 l 3.67213,-5.95622 c 0.18417,-0.58952 0.85922,-1.13192 -0.62684,-1.88051 l -4.25452,-0.94051 c -0.47953,-0.0795 -0.60709,-0.48719 -0.44752,-0.89555 l 0.62684,-1.79163 z m -4.03748,4.46019 c 0.204117,0.004 0.453971,0.0582 0.751375,0.12558 l 0.656808,0.14883 c 0.847455,0.10651 0.703922,0.2355 0.488859,0.86403 -0.293611,1.24536 -0.324802,2.48345 -0.558622,3.64577 -0.03406,0.85362 0.261013,1.2022 -0.675411,0.97617 l -0.568441,-0.13695 c -0.982245,-0.0911 -0.905542,-1.34799 -0.921908,-1.99781 -0.02209,-0.91601 -0.0124,-1.94266 0.141594,-2.8484 0.07236,-0.61053 0.296068,-0.78496 0.685746,-0.77722 z m 18.444355,4.55476 c 0.16183,-0.004 0.38702,0.0628 0.68833,0.17984 l 0.86506,0.24236 c 0.85534,0.23532 1.07245,0.22171 0.73071,1.09399 -0.2916,0.87123 -0.76737,1.78145 -1.21905,2.57865 -0.32104,0.56522 -1.12446,1.80426 -2.03347,1.42111 l -0.56586,-0.14728 c -0.932277,-0.24256 -0.37326,-0.36612 -5.1e-4,-1.13482 0.56036,-1.01463 0.82777,-2.25602 1.19476,-3.52278 -0.0234,-0.49999 0.0703,-0.70431 0.34003,-0.71107 z" /><path
         sodipodi:type="star"
         style="opacity:1;fill:#f5e603;fill-opacity:1;stroke:none;stroke-width:0.765;stroke-linecap:round;stroke-linejoin:round;stroke-dasharray:none;stroke-opacity:0.122449;paint-order:stroke fill markers"
         id="path25709"
         inkscape:flatsided="false"
         sodipodi:sides="5"
         sodipodi:cx="58.038601"
         sodipodi:cy="35.468033"
         sodipodi:r1="2.6849132"
         sodipodi:r2="5.7125812"
         sodipodi:arg1="0.71883"
         sodipodi:arg2="1.3471485"
         inkscape:rounded="0"
         inkscape:randomized="0"
         d="m 60.059204,37.236061 -0.753621,3.802281 -2.324076,-3.102251 -3.849065,0.458234 2.232236,-3.168976 -1.625233,-3.519077 3.703674,1.143716 2.844617,-2.633143 0.05676,3.875831 3.383302,1.891705 z"
         transform="matrix(0.66886661,0,0,0.66886661,54.155985,-274.67454)" /><path
         id="path16859"
         style="fill:#e79700;fill-opacity:1;stroke:none;stroke-width:0.765;stroke-linecap:round;stroke-linejoin:round;stroke-dasharray:none;stroke-opacity:0.0739796;paint-order:stroke fill markers"
         d="m 95.492167,-259.3475 c -1.477477,5.06437 -4.470617,15.3142 -5.641516,19.24689 l 1.888257,0.57361 2.349727,-2.30064 c 3.180512,-0.50714 3.785384,-2.10374 4.881356,-3.49281 l 2.284099,0.53744 c 1.7999,0.39797 1.86656,-0.59092 2.50786,-1.11983 l 3.67213,-5.95622 c 0.18417,-0.58952 0.85922,-1.13192 -0.62684,-1.88051 l -4.25452,-0.94051 c -0.47953,-0.0795 -0.60709,-0.48719 -0.44752,-0.89555 l 0.62684,-1.79163 z m 6.420283,6.83059 c 0.16183,-0.004 0.38702,0.0628 0.68833,0.17984 l 0.86506,0.24236 c 0.85534,0.23532 1.07245,0.22171 0.73071,1.09399 -0.2916,0.87124 -0.76736,1.78145 -1.21905,2.57865 -0.32104,0.56522 -1.12446,1.80426 -2.03347,1.42111 l -0.56586,-0.14728 c -0.932278,-0.24256 -0.37326,-0.36612 -5.1e-4,-1.13482 0.56036,-1.01463 0.82776,-2.25602 1.19476,-3.52278 -0.0234,-0.49999 0.0703,-0.70431 0.34003,-0.71107 z" /><g
         id="g15209"
         clip-path="url(#clipPath27576)"
         transform="translate(7.1652593,-333.90109)"><path
           style="fill:none;fill-opacity:1;stroke:#1a1a1a;stroke-width:0.765;stroke-linecap:round;stroke-linejoin:round;stroke-dasharray:none;stroke-opacity:0.25098;paint-order:stroke fill markers"
           d="m 92.207931,101.88103 -4.365694,-1.08729 c -0.682849,1.75212 -1.987409,2.94748 -5.478264,2.18497 l -4.591611,-1.17165 c -0.844498,-0.23644 -1.366745,-1.923128 0.158332,-2.279968 -0.816214,-0.704322 -0.537117,-1.929959 0.506661,-2.184975 -0.574965,-0.680518 -0.492066,-1.613207 0.569992,-2.026639 -0.884288,-1.27776 0.167273,-2.050065 0.791657,-2.153309 l 1.056959,0.274535 3.977977,1.055451 0.384633,-1.517732 c 0.331369,-0.820156 1.494249,-0.913407 1.705343,0.124415 -0.02671,0.485426 -0.101798,1.008861 0.443328,1.044986 2.230584,0.75798 1.146866,3.533901 1.298316,3.768288 l 8.296563,2.153308 -1.044988,2.6283 z"
           id="path13749"
           sodipodi:nodetypes="ccccccccccccccccc" /><path
           style="color:#000000;fill:#1a1a1a;fill-opacity:0.0892857;stroke-linecap:round;stroke-linejoin:round;paint-order:stroke fill markers"
           d="m 84.798861,94.292062 a 0.1825005,0.1825005 0 0 0 -0.1875,0.177734 0.1825005,0.1825005 0 0 0 0.177734,0.1875 c 0.422492,0.01157 0.69513,0.173669 0.859375,0.388672 0.164246,0.215003 0.2168,0.490917 0.160156,0.738282 -0.05664,0.247364 -0.214993,0.462376 -0.492187,0.574218 -0.277194,0.111843 -0.688914,0.120565 -1.25,-0.105468 l -0.002,0.0039 c -0.0069,-0.0021 -0.0068,-0.0077 -0.01367,-0.0098 a 0.18314908,0.18314908 0 0 0 -0.121094,0.345703 c 0.008,0.0032 0.01157,-0.0012 0.01953,0.002 l -0.002,0.0039 c 0.554557,0.163882 0.884044,0.410999 1.050782,0.658203 0.166737,0.247204 0.182192,0.492723 0.09375,0.710937 -0.176885,0.436429 -0.810833,0.782503 -1.722657,0.433594 l -0.002,0.0078 c -0.01469,-0.0028 -0.01439,-0.01292 -0.0293,-0.01563 a 0.18251875,0.18251875 0 0 0 -0.09766,0.349609 c 0.01251,0.0048 0.02074,-0.0026 0.0332,0.002 l -0.002,0.0078 c 0.660983,0.120065 1.007829,0.36648 1.162109,0.623046 0.154281,0.256567 0.137592,0.544846 0.002,0.810538 -0.135639,0.26571 -0.395383,0.49421 -0.695313,0.58985 -0.299929,0.0956 -0.635086,0.0697 -0.976562,-0.17969 l -0.002,0.006 c -0.02208,-0.008 -0.02232,-0.0211 -0.04492,-0.0293 a 0.18251875,0.18251875 0 0 0 -0.169922,0.31836 c 0.01795,0.0131 0.03658,-0.002 0.05469,0.01 l -0.0078,0.0156 c 0.661289,0.23915 1.042887,0.52869 1.222656,0.78711 0.179769,0.25842 0.177072,0.47351 0.07227,0.66602 -0.209614,0.38502 -0.947018,0.66761 -1.789063,0.31055 a 0.1825005,0.1825005 0 0 0 -0.238281,0.0977 0.1825005,0.1825005 0 0 0 0.0957,0.23828 c 0.974844,0.41338 1.918412,0.14001 2.251953,-0.47265 0.16677,-0.30633 0.15123,-0.69948 -0.0918,-1.04883 -0.11692,-0.16808 -0.455622,-0.29348 -0.673828,-0.44336 0.136201,-0.003 0.283167,0.11214 0.408203,0.0723 0.399713,-0.12745 0.727079,-0.41668 0.908203,-0.77148 0.181125,-0.354795 0.210972,-0.790478 -0.01367,-1.164058 -0.113481,-0.188719 -0.47374,-0.265862 -0.710937,-0.402343 0.651812,-0.0052 1.20571,-0.213808 1.394531,-0.679688 0.13234,-0.326524 0.09872,-0.715254 -0.128906,-1.052734 -0.115888,-0.171815 -0.423422,-0.271929 -0.636719,-0.410156 0.265872,0.01872 0.588791,0.13354 0.789063,0.05273 0.386692,-0.156022 0.630245,-0.477692 0.710937,-0.830078 0.08069,-0.352386 0.0057,-0.738949 -0.226562,-1.042969 -0.232248,-0.30402 -0.62356,-0.517139 -1.138672,-0.53125 z"
           id="path11335" /><path
           style="fill:#f0c5a3;fill-opacity:1;stroke:#e8d5c6;stroke-width:0.365001;stroke-linecap:round;stroke-linejoin:round;stroke-dasharray:none;paint-order:stroke fill markers"
           d="m 92.207931,101.88103 -4.365694,-1.08729 c -0.682849,1.75212 -1.987409,2.94748 -5.478264,2.18497 l -4.591611,-1.17165 c -0.844498,-0.23644 -1.366745,-1.923128 0.158332,-2.279968 -0.816214,-0.704322 -0.537117,-1.929959 0.506661,-2.184975 -0.574965,-0.680518 -0.492066,-1.613207 0.569992,-2.026639 -0.884288,-1.27776 0.167273,-2.050065 0.791657,-2.153309 l 4.876605,1.266653 0.305467,-1.707729 c 0.331369,-0.820156 2.127574,-0.897574 1.94284,0.377745 -0.02671,0.485426 -0.101798,1.008861 0.443328,1.044986 2.230584,0.75798 1.146866,3.533901 1.298316,3.768288 l 8.296563,2.153308 -1.044988,2.6283 z"
           id="path5420"
           sodipodi:nodetypes="cccccccccccccccc" /><path
           style="fill:none;fill-opacity:1;stroke:#1a1a1a;stroke-width:0.265;stroke-linecap:round;stroke-linejoin:round;stroke-dasharray:none;stroke-opacity:0.252551;paint-order:stroke fill markers"
           d="m 84.55006,94.402291 c 1.875209,0.05137 1.571413,2.90132 -0.794897,1.948054 2.33431,0.689834 1.262187,2.898164 -0.694135,2.149578 2.774837,0.504039 0.89008,3.296117 -0.649351,2.171967 2.735592,0.98929 1.189932,2.87524 -0.626959,2.1048"
           id="path7654"
           sodipodi:nodetypes="ccccc" /><path
           id="rect11326"
           style="fill:#1a1a1a;fill-opacity:0.0892857;stroke:none;stroke-width:0.365001;stroke-linecap:round;stroke-linejoin:round;stroke-dasharray:none;paint-order:stroke fill markers"
           d="m -71.232124,100.92214 c -0.03598,-0.11616 -0.14381,-0.19985 -0.272093,-0.19985 l -0.06844,-3.2e-4 c -0.157888,0 -0.285071,0.12734 -0.285071,0.28522 l -1.37e-4,4.77847 c 0,0.15788 0.127336,0.28507 0.285224,0.28507 l 0.06831,-1.8e-4 c 0.157888,0 0.285202,-0.12684 0.285202,-0.28473 l 1.37e-4,-4.77846 c 0,-0.0296 -0.0048,-0.0584 -0.01313,-0.0852 z m -2.00946,-0.11452 c -0.03598,-0.11616 -0.14381,-0.19985 -0.272094,-0.19985 l -0.06881,3.1e-4 c -0.157888,0 -0.284702,0.12671 -0.284702,0.2846 l -1.37e-4,4.77846 c 0,0.15789 0.126837,0.2852 0.284724,0.2852 l 0.06894,1.9e-4 c 0.157888,0 0.285071,-0.12734 0.285071,-0.28522 l -3.63e-4,-4.77833 c 0,-0.0296 -0.0043,-0.0586 -0.01263,-0.0854 z m -2.243925,-0.13513 c -0.03598,-0.11615 -0.14381,-0.19984 -0.272094,-0.19984 l -0.06894,-1.9e-4 c -0.157888,0 -0.285071,0.12733 -0.285071,0.28522 l 3.63e-4,4.77833 c 0,0.15789 0.126836,0.2852 0.284724,0.2852 l 0.06881,-3e-4 c 0.157888,0 0.284701,-0.12671 0.284701,-0.2846 l 1.37e-4,-4.77846 c 0,-0.0296 -0.0043,-0.0586 -0.01263,-0.0854 z m -2.158941,-0.059 c -0.03598,-0.11615 -0.143809,-0.19984 -0.272093,-0.19984 l -0.06894,-1.9e-4 c -0.157888,0 -0.284571,0.1272 -0.284571,0.28509 l -1.37e-4,4.77846 c 0,0.15789 0.126836,0.2852 0.284724,0.2852 l 0.06881,-3.1e-4 c 0.157888,0 0.285071,-0.12733 0.285071,-0.28522 l -3.63e-4,-4.77833 c 0,-0.0296 -0.0042,-0.0581 -0.0125,-0.0849 z"
           transform="rotate(-75.394325)" /><path
           style="fill:#e8d5c6;fill-opacity:1;stroke:none;stroke-width:0.365001;stroke-linecap:round;stroke-linejoin:round;stroke-dasharray:none;paint-order:stroke fill markers"
           d="m 82.434069,101.20929 c 2.237704,0.70646 0.239557,1.55897 -0.263265,1.21411 z"
           id="path9762"
           sodipodi:nodetypes="ccc" /><path
           style="fill:#e8d5c6;fill-opacity:1;stroke:none;stroke-width:0.365001;stroke-linecap:round;stroke-linejoin:round;stroke-dasharray:none;paint-order:stroke fill markers"
           d="m 83.072225,98.869385 c 2.109713,0.632951 0.119513,2.170845 -0.358264,1.388265 z"
           id="path10490"
           sodipodi:nodetypes="ccc" /><path
           style="fill:#e8d5c6;fill-opacity:1;stroke:none;stroke-width:0.365001;stroke-linecap:round;stroke-linejoin:round;stroke-dasharray:none;paint-order:stroke fill markers"
           d="m 83.687989,96.68622 c 2.109713,0.632951 0.119513,2.170845 -0.358264,1.388265 z"
           id="path10492"
           sodipodi:nodetypes="ccc" /><path
           style="fill:#e8d5c6;fill-opacity:1;stroke:none;stroke-width:0.365001;stroke-linecap:round;stroke-linejoin:round;stroke-dasharray:none;paint-order:stroke fill markers"
           d="m 84.410113,94.827731 c 1.970193,0.479963 0.219277,1.706532 -0.363862,1.220329 z"
           id="path10494"
           sodipodi:nodetypes="ccc" /></g><g
         id="g16723"
         transform="translate(7.1652593,-333.90109)"><path
           style="fill:#4d77ff;fill-opacity:1;stroke-width:0.264583;stroke-linecap:round;stroke-linejoin:round;paint-order:stroke fill markers"
           d="m 56.739898,77.026536 0.94044,3.134802 -0.671743,10.165712 c -0.134585,0.776236 0.152997,1.552473 0.358262,2.328709 l 2.776538,9.583531 c 0.485179,1.1755 1.357493,1.69287 2.686973,1.43306 l 5.105246,-1.29871 c 1.850699,-0.42376 1.939107,-1.19578 1.836098,-2.06001 L 67.263872,90.147919 C 67.157338,89.281825 66.941625,88.400134 66.00995,87.416163 L 60.68079,78.9522 59.829914,76.265229 60.018096,76.141734 c 0.161762,-0.06748 0.132907,-0.215538 0.05332,-0.438025 L 59.829267,75.0268 c -0.11143,-0.405512 -0.133909,-0.373698 -0.51298,-0.267373 l -2.974512,0.834316 c -0.303395,0.07009 -0.327409,0.05216 -0.256914,0.342952 l 0.204498,0.843558 c 0.06576,0.254736 0.08054,0.385035 0.450539,0.246283 z"
           id="path422"
           sodipodi:nodetypes="cccccccccccccccccccc" /><path
           id="path25589"
           style="opacity:0.225882;fill:#1a1a1a;fill-opacity:1;stroke:none;stroke-width:0.765;stroke-linecap:round;stroke-linejoin:round;stroke-dasharray:none;stroke-opacity:0.232143;paint-order:stroke fill markers"
           d="m 59.615999,74.690531 c -0.06536,-2.17e-4 -0.157571,0.02886 -0.299723,0.06873 l -1.912545,0.536401 8.264095,27.654648 2.267562,-0.57671 c 1.850697,-0.42376 1.939589,-1.1956 1.836581,-2.05983 L 67.264111,90.147986 C 67.157577,89.281893 66.941598,88.40034 66.009924,87.41637 l -5.32939,-8.464083 -0.850594,-2.687175 0.188102,-0.123506 c 0.161762,-0.06748 0.132814,-0.215213 0.05323,-0.4377 L 59.829423,75.026945 C 59.759779,74.7735 59.724925,74.690893 59.615999,74.690531 Z" /><g
           id="g15955"
           transform="matrix(-1.2545124,0,0,1.1453401,167.38574,-15.211335)"
           clip-path="url(#clipPath27592)"><path
             style="color:#000000;fill:#1a1a1a;fill-opacity:0.0892857;stroke-linecap:round;stroke-linejoin:round;paint-order:stroke fill markers"
             d="m 84.798861,94.292062 a 0.1825005,0.1825005 0 0 0 -0.1875,0.177734 0.1825005,0.1825005 0 0 0 0.177734,0.1875 c 0.422492,0.01157 0.69513,0.173669 0.859375,0.388672 0.164246,0.215003 0.2168,0.490917 0.160156,0.738282 -0.05664,0.247364 -0.214993,0.462376 -0.492187,0.574218 -0.277194,0.111843 -0.688914,0.120565 -1.25,-0.105468 l -0.002,0.0039 c -0.0069,-0.0021 -0.0068,-0.0077 -0.01367,-0.0098 a 0.18314908,0.18314908 0 0 0 -0.121094,0.345703 c 0.008,0.0032 0.01157,-0.0012 0.01953,0.002 l -0.002,0.0039 c 0.554557,0.163882 0.884044,0.410999 1.050782,0.658203 0.166737,0.247204 0.182192,0.492723 0.09375,0.710937 -0.176885,0.436429 -0.810833,0.782503 -1.722657,0.433594 l -0.002,0.0078 c -0.01469,-0.0028 -0.01439,-0.01292 -0.0293,-0.01563 a 0.18251875,0.18251875 0 0 0 -0.09766,0.349609 c 0.01251,0.0048 0.02074,-0.0026 0.0332,0.002 l -0.002,0.0078 c 0.660983,0.120065 1.007829,0.36648 1.162109,0.623046 0.154281,0.256567 0.137592,0.544846 0.002,0.810538 -0.135639,0.26571 -0.395383,0.49421 -0.695313,0.58985 -0.299929,0.0956 -0.635086,0.0697 -0.976562,-0.17969 l -0.002,0.006 c -0.02208,-0.008 -0.02232,-0.0211 -0.04492,-0.0293 a 0.18251875,0.18251875 0 0 0 -0.169922,0.31836 c 0.01795,0.0131 0.03658,-0.002 0.05469,0.01 l -0.0078,0.0156 c 0.661289,0.23915 1.042887,0.52869 1.222656,0.78711 0.179769,0.25842 0.177072,0.47351 0.07227,0.66602 -0.209614,0.38502 -0.947018,0.66761 -1.789063,0.31055 a 0.1825005,0.1825005 0 0 0 -0.238281,0.0977 0.1825005,0.1825005 0 0 0 0.0957,0.23828 c 0.974844,0.41338 1.918412,0.14001 2.251953,-0.47265 0.16677,-0.30633 0.15123,-0.69948 -0.0918,-1.04883 -0.11692,-0.16808 -0.455622,-0.29348 -0.673828,-0.44336 0.136201,-0.003 0.283167,0.11214 0.408203,0.0723 0.399713,-0.12745 0.727079,-0.41668 0.908203,-0.77148 0.181125,-0.354795 0.210972,-0.790478 -0.01367,-1.164058 -0.113481,-0.188719 -0.47374,-0.265862 -0.710937,-0.402343 0.651812,-0.0052 1.20571,-0.213808 1.394531,-0.679688 0.13234,-0.326524 0.09872,-0.715254 -0.128906,-1.052734 -0.115888,-0.171815 -0.423422,-0.271929 -0.636719,-0.410156 0.265872,0.01872 0.588791,0.13354 0.789063,0.05273 0.386692,-0.156022 0.630245,-0.477692 0.710937,-0.830078 0.08069,-0.352386 0.0057,-0.738949 -0.226562,-1.042969 -0.232248,-0.30402 -0.62356,-0.517139 -1.138672,-0.53125 z"
             id="path15939" /><g
             id="g27588"><path
               style="fill:none;fill-opacity:1;stroke:#1a1a1a;stroke-width:0.765;stroke-linecap:round;stroke-linejoin:round;stroke-dasharray:none;stroke-opacity:0.122449;paint-order:stroke fill markers"
               d="m 92.207931,101.88103 -4.365694,-1.08729 c -0.682849,1.75212 -1.987409,2.94748 -5.478264,2.18497 l -4.591611,-1.17165 c -0.844498,-0.23644 -1.366745,-1.923128 0.158332,-2.279968 -0.816214,-0.704322 -0.537117,-1.929959 0.506661,-2.184975 -0.574965,-0.680518 -0.492066,-1.613207 0.569992,-2.026639 -0.884288,-1.27776 0.167273,-2.050065 0.791657,-2.153309 l 4.876605,1.266653 2.839985,0.814225 c 0.330934,-0.818675 0.01656,-0.521915 0.746976,-2.359259 0.520529,-0.346002 1.627929,-0.430368 1.442856,1.123186 -0.08975,1.14898 -1.191316,3.670751 -1.039866,3.905138 l 8.296563,2.153308 -1.044988,2.6283 z"
               id="path15937"
               sodipodi:nodetypes="cccccccccccccccc" /><path
               style="fill:#f0c5a3;fill-opacity:1;stroke:#e8d5c6;stroke-width:0.365001;stroke-linecap:round;stroke-linejoin:round;stroke-dasharray:none;paint-order:stroke fill markers"
               d="m 92.207931,101.88103 -4.365694,-1.08729 c -0.682849,1.75212 -1.987409,2.94748 -5.478264,2.18497 l -4.591611,-1.17165 c -0.844498,-0.23644 -1.366745,-1.923128 0.158332,-2.279968 -0.816214,-0.704322 -0.537117,-1.929959 0.506661,-2.184975 -0.574965,-0.680518 -0.492066,-1.613207 0.569992,-2.026639 -0.884288,-1.27776 0.167273,-2.050065 0.791657,-2.153309 l 4.876605,1.266653 2.91138,0.755575 c 0.315785,-0.813334 0.09762,-2.732173 1.728655,-2.51566 0.437357,0.07488 0.505058,0.813361 0.443328,1.044986 -0.444509,2.744475 -1.255962,3.972245 -1.093412,4.198389 l 8.296563,2.153308 -1.044988,2.6283 z"
               id="path15941"
               sodipodi:nodetypes="cccccccccccccccc" /></g><path
             id="path16683"
             style="fill:#24b05f;fill-opacity:1;stroke-width:0.220728;stroke-linecap:round;stroke-linejoin:round;paint-order:stroke fill markers"
             d="m 83.13661,93.61184 2.00313,0.445385 2.787979,-1.86364 0.04497,0.693067 -0.449112,1.652009 -2.059479,8.054269 c -0.07724,0.20499 -0.416973,0.77727 -0.519281,0.93559 -0.398532,0.24877 -1.446752,0.1749 -2.616559,-0.0806 -2.531383,-0.73752 -2.783636,-0.38917 -4.182164,-1.3049 4.041469,0.95386 3.086603,-1.9537 2.226592,-1.76334 -0.339929,0.0752 2.531184,-0.22076 0.847891,-2.18879 -0.100036,-0.116958 -0.160653,-0.113528 0.02425,-0.117414 1.387378,-0.02916 0.919369,-2.489436 0.680319,-2.108981 -0.300409,0.47811 2.382476,-0.147808 0.545178,-2.219726 l -0.02764,-0.303139 c 0.04809,0.04212 0.605735,0.184813 0.693925,0.17023 z"
             sodipodi:nodetypes="cccccccccsssscccc" /><path
             style="fill:#eae9b7;fill-opacity:1;stroke:none;stroke-width:0.554775;stroke-linecap:round;stroke-linejoin:round;stroke-dasharray:none;paint-order:stroke fill markers"
             d="m 85.94553,93.561158 -0.810704,3.325196 c -0.174858,1.002803 -0.226175,0.904489 -1.058632,0.626983 L 82.433369,96.965688 81.95801,96.024667 c 1.412323,-0.157509 0.834563,-1.06847 1.083182,-1.413173 -0.260503,-0.995525 -1.356417,-1.015903 -2.15405,-1.447751 l 0.172881,-0.862085 c 0.126118,-0.896953 0.142203,-0.848369 0.895365,-0.621828 l 3.654716,1.099292 c 0.581723,0.113894 0.474887,0.210024 0.335426,0.782036 z"
             id="path520"
             sodipodi:nodetypes="ccccccccccc" /><path
             style="fill:none;fill-opacity:1;stroke:#1a1a1a;stroke-width:0.265;stroke-linecap:round;stroke-linejoin:round;stroke-dasharray:none;stroke-opacity:0.232143;paint-order:stroke fill markers"
             d="m 81.676417,93.75714 c 1.875209,0.05137 1.571413,2.90132 -0.794897,1.948054 2.33431,0.689834 1.262187,2.898164 -0.694135,2.149578 2.877275,0.504039 1.230659,3.296118 -0.649351,2.171968 2.801756,0.69941 1.190036,2.87478 -0.626959,2.1048"
             id="path15943"
             sodipodi:nodetypes="ccccc" /><path
             id="path15945"
             style="fill:#1a1a1a;fill-opacity:0.0892857;stroke:none;stroke-width:0.365001;stroke-linecap:round;stroke-linejoin:round;stroke-dasharray:none;paint-order:stroke fill markers"
             d="m -71.232124,100.92214 c -0.03598,-0.11616 -0.14381,-0.19985 -0.272093,-0.19985 l -0.06844,-3.2e-4 c -0.157888,0 -0.285071,0.12734 -0.285071,0.28522 l -0.152405,1.46009 c 0,0.15788 0.127336,0.28507 0.285224,0.28507 l 0.06831,-1.8e-4 c 0.157888,0 0.285202,-0.12684 0.285202,-0.28473 l 0.152405,-1.46008 c 0,-0.0296 -0.0048,-0.0584 -0.01313,-0.0852 z m -2.00946,-0.11452 c -0.03598,-0.11616 -0.14381,-0.19985 -0.272094,-0.19985 l -0.06881,3.1e-4 c -0.157888,0 -0.284702,0.12671 -0.284702,0.2846 l -0.152405,1.46008 c 0,0.15789 0.126837,0.2852 0.284724,0.2852 l 0.06894,1.9e-4 c 0.157888,0 0.285071,-0.12734 0.285071,-0.28522 l 0.151905,-1.45995 c 0,-0.0296 -0.0043,-0.0586 -0.01263,-0.0854 z m -2.243925,-0.13513 c -0.03598,-0.11615 -0.14381,-0.19984 -0.272094,-0.19984 l -0.06894,-1.9e-4 c -0.157888,0 -0.285071,0.12733 -0.285071,0.28522 l -0.151905,1.45995 c 0,0.15789 0.126836,0.2852 0.284724,0.2852 l 0.06881,-3e-4 c 0.157888,0 0.284701,-0.12671 0.284701,-0.2846 l 0.152405,-1.46008 c 0,-0.0296 -0.0043,-0.0586 -0.01263,-0.0854 z m -2.158941,-0.059 c -0.03598,-0.11615 -0.143809,-0.19984 -0.272093,-0.19984 l -0.06894,-1.9e-4 c -0.157888,0 -0.284571,0.1272 -0.284571,0.28509 l -0.152405,1.46008 c 0,0.15789 0.126836,0.2852 0.284724,0.2852 l 0.06881,-3.1e-4 c 0.157888,0 0.285071,-0.12733 0.285071,-0.28522 l 0.151905,-1.45995 c 0,-0.0296 -0.0042,-0.0581 -0.0125,-0.0849 z"
             transform="rotate(-75.394325)"
             sodipodi:nodetypes="sccccccccssccccccccccccccccccccccccccccccccc" /><path
             style="fill:#e8d5c6;fill-opacity:1;stroke:none;stroke-width:0.365001;stroke-linecap:round;stroke-linejoin:round;stroke-dasharray:none;paint-order:stroke fill markers"
             d="m 79.560426,100.56414 c 2.237704,0.70646 0.239557,1.55897 -0.263265,1.21411 0.04649,-0.39905 -0.124954,-0.76827 0.263265,-1.21411 z"
             id="path15947"
             sodipodi:nodetypes="ccc" /><path
             style="fill:#e8d5c6;fill-opacity:1;stroke:none;stroke-width:0.365001;stroke-linecap:round;stroke-linejoin:round;stroke-dasharray:none;paint-order:stroke fill markers"
             d="m 80.198582,98.224234 c 2.109713,0.632951 0.119513,2.170846 -0.358264,1.388265 -0.286845,-0.462755 -0.115703,-0.92551 0.358264,-1.388265 z"
             id="path15949"
             sodipodi:nodetypes="ccc" /><path
             style="fill:#e8d5c6;fill-opacity:1;stroke:none;stroke-width:0.365001;stroke-linecap:round;stroke-linejoin:round;stroke-dasharray:none;paint-order:stroke fill markers"
             d="m 80.814346,96.041069 c 2.109713,0.632951 0.119513,2.170845 -0.358264,1.388265 -0.26602,-0.462755 0.01489,-0.92551 0.358264,-1.388265 z"
             id="path15951"
             sodipodi:nodetypes="ccc" /><path
             style="fill:#e8d5c6;fill-opacity:1;stroke:none;stroke-width:0.365001;stroke-linecap:round;stroke-linejoin:round;stroke-dasharray:none;paint-order:stroke fill markers"
             d="m 81.53647,94.18258 c 1.970193,0.479963 0.219277,1.706532 -0.363862,1.220329 -0.267733,-0.477793 0.08138,-0.84298 0.363862,-1.220329 z"
             id="path15953"
             sodipodi:nodetypes="ccc" /></g></g><path
         style="fill:#ffb500;fill-opacity:1;stroke:none;stroke-width:0.765;stroke-linecap:round;stroke-linejoin:round;stroke-dasharray:none;stroke-opacity:0.252551;paint-order:stroke fill markers"
         d="m 81.549608,-228.97482 0.582176,-1.97045 4.030459,-0.67174 2.955668,0.71652 2.866104,2.77654 -0.626959,1.97045 z"
         id="path16801" /><path
         id="path21281"
         style="fill:#e79700;fill-opacity:1;stroke:none;stroke-width:0.765;stroke-linecap:round;stroke-linejoin:round;stroke-dasharray:none;stroke-opacity:0.0739796;paint-order:stroke fill markers"
         d="m 87.283366,-231.34508 -1.114144,3.699 5.187797,1.49242 0.626835,-1.97042 -2.865975,-2.77658 z" /><path
         id="path25504"
         style="opacity:0.225882;fill:#1a1a1a;fill-opacity:1;stroke:none;stroke-width:0.765;stroke-linecap:round;stroke-linejoin:round;stroke-dasharray:none;stroke-opacity:0.232143;paint-order:stroke fill markers"
         d="m 67.189502,-257.7631 -3.279903,0.90331 0.08682,0.2899 3.069064,-0.84439 -0.07028,-0.22169 0.188102,-0.12351 c 0.0024,-10e-4 0.0039,-0.003 0.0062,-0.004 z" /><g
         id="g25532"
         transform="translate(7.1652593,-333.90109)"><g
           id="g25530"
           transform="matrix(-1.2545124,0,0,1.1453401,167.38574,-15.211335)"
           clip-path="url(#clipPath27582)"><path
             style="color:#000000;fill:#1a1a1a;fill-opacity:0.0892857;stroke-linecap:round;stroke-linejoin:round;paint-order:stroke fill markers"
             d="m 84.798861,94.292062 a 0.1825005,0.1825005 0 0 0 -0.1875,0.177734 0.1825005,0.1825005 0 0 0 0.177734,0.1875 c 0.422492,0.01157 0.69513,0.173669 0.859375,0.388672 0.164246,0.215003 0.2168,0.490917 0.160156,0.738282 -0.05664,0.247364 -0.214993,0.462376 -0.492187,0.574218 -0.277194,0.111843 -0.688914,0.120565 -1.25,-0.105468 l -0.002,0.0039 c -0.0069,-0.0021 -0.0068,-0.0077 -0.01367,-0.0098 a 0.18314908,0.18314908 0 0 0 -0.121094,0.345703 c 0.008,0.0032 0.01157,-0.0012 0.01953,0.002 l -0.002,0.0039 c 0.554557,0.163882 0.884044,0.410999 1.050782,0.658203 0.166737,0.247204 0.182192,0.492723 0.09375,0.710937 -0.176885,0.436429 -0.810833,0.782503 -1.722657,0.433594 l -0.002,0.0078 c -0.01469,-0.0028 -0.01439,-0.01292 -0.0293,-0.01563 a 0.18251875,0.18251875 0 0 0 -0.09766,0.349609 c 0.01251,0.0048 0.02074,-0.0026 0.0332,0.002 l -0.002,0.0078 c 0.660983,0.120065 1.007829,0.36648 1.162109,0.623046 0.154281,0.256567 0.137592,0.544846 0.002,0.810538 -0.135639,0.26571 -0.395383,0.49421 -0.695313,0.58985 -0.299929,0.0956 -0.635086,0.0697 -0.976562,-0.17969 l -0.002,0.006 c -0.02208,-0.008 -0.02232,-0.0211 -0.04492,-0.0293 a 0.18251875,0.18251875 0 0 0 -0.169922,0.31836 c 0.01795,0.0131 0.03658,-0.002 0.05469,0.01 l -0.0078,0.0156 c 0.661289,0.23915 1.042887,0.52869 1.222656,0.78711 0.179769,0.25842 0.177072,0.47351 0.07227,0.66602 -0.209614,0.38502 -0.947018,0.66761 -1.789063,0.31055 a 0.1825005,0.1825005 0 0 0 -0.238281,0.0977 0.1825005,0.1825005 0 0 0 0.0957,0.23828 c 0.974844,0.41338 1.918412,0.14001 2.251953,-0.47265 0.16677,-0.30633 0.15123,-0.69948 -0.0918,-1.04883 -0.11692,-0.16808 -0.455622,-0.29348 -0.673828,-0.44336 0.136201,-0.003 0.283167,0.11214 0.408203,0.0723 0.399713,-0.12745 0.727079,-0.41668 0.908203,-0.77148 0.181125,-0.354795 0.210972,-0.790478 -0.01367,-1.164058 -0.113481,-0.188719 -0.47374,-0.265862 -0.710937,-0.402343 0.651812,-0.0052 1.20571,-0.213808 1.394531,-0.679688 0.13234,-0.326524 0.09872,-0.715254 -0.128906,-1.052734 -0.115888,-0.171815 -0.423422,-0.271929 -0.636719,-0.410156 0.265872,0.01872 0.588791,0.13354 0.789063,0.05273 0.386692,-0.156022 0.630245,-0.477692 0.710937,-0.830078 0.08069,-0.352386 0.0057,-0.738949 -0.226562,-1.042969 -0.232248,-0.30402 -0.62356,-0.517139 -1.138672,-0.53125 z"
             id="path25510" /><path
             style="fill:#f0c5a3;fill-opacity:1;stroke:#e8d5c6;stroke-width:0.365001;stroke-linecap:round;stroke-linejoin:round;stroke-dasharray:none;paint-order:stroke fill markers"
             d="m 92.207931,101.88103 -4.365694,-1.08729 c -0.682849,1.75212 -1.987409,2.94748 -5.478264,2.18497 l -4.591611,-1.17165 c -0.844498,-0.23644 -1.366745,-1.923128 0.158332,-2.279968 -0.816214,-0.704322 -0.537117,-1.929959 0.506661,-2.184975 -0.574965,-0.680518 -0.492066,-1.613207 0.569992,-2.026639 -0.884288,-1.27776 0.167273,-2.050065 0.791657,-2.153309 l 4.876605,1.266653 2.91138,0.755575 c 0.315785,-0.813334 0.09762,-2.732173 1.728655,-2.51566 0.437357,0.07488 0.505058,0.813361 0.443328,1.044986 -0.444509,2.744475 -1.255962,3.972245 -1.093412,4.198389 l 8.296563,2.153308 -1.044988,2.6283 z"
             id="path25512"
             sodipodi:nodetypes="cccccccccccccccc" /><path
             id="path25514"
             style="fill:#4d77ff;fill-opacity:1;stroke-width:0.220728;stroke-linecap:round;stroke-linejoin:round;paint-order:stroke fill markers"
             d="m 83.13661,93.61184 2.00313,0.445385 2.787979,-1.86364 0.04497,0.693067 -0.449112,1.652009 -2.059479,8.054269 c -0.07724,0.20499 -0.416973,0.77727 -0.519281,0.93559 -0.398532,0.24877 -1.446752,0.1749 -2.616559,-0.0806 -2.531383,-0.73752 -2.783636,-0.38917 -4.182164,-1.3049 4.041469,0.95386 3.086603,-1.9537 2.226592,-1.76334 -0.339929,0.0752 2.531184,-0.22076 0.847891,-2.18879 -0.100036,-0.116958 -0.160653,-0.113528 0.02425,-0.117414 1.387378,-0.02916 0.919369,-2.489436 0.680319,-2.108981 -0.300409,0.47811 2.382476,-0.147808 0.545178,-2.219726 l -0.02764,-0.303139 c 0.04809,0.04212 0.605735,0.184813 0.693925,0.17023 z"
             sodipodi:nodetypes="cccccccccsssscccc" /><path
             id="path25626"
             style="opacity:0.225882;fill:#1a1a1a;fill-opacity:1;stroke:none;stroke-width:0.6382;stroke-linecap:round;stroke-linejoin:round;stroke-dasharray:none;stroke-opacity:0.232143;paint-order:stroke fill markers"
             d="m 82.442631,93.441475 c 0.04809,0.04212 0.605903,0.185132 0.694093,0.170549 l 0.533442,0.118663 -2.56423,9.397803 c -1.446166,-0.33093 -1.827787,-0.24425 -2.959677,-0.98539 3.87199,0.91386 3.157779,-1.7161 2.334788,-1.77092 0.493982,-0.0947 2.096653,-0.59466 0.739404,-2.181494 -0.100036,-0.116958 -0.160599,-0.113423 0.0243,-0.117309 1.051551,-0.0221 1.037263,-1.440092 0.864629,-1.959963 0.524852,-0.0442 1.767892,-0.782017 0.360846,-2.36874 z m -0.333247,2.671939 c -0.160491,0.01351 -0.254478,-0.03693 -0.18413,-0.148893 0.05786,-0.09209 0.128998,-0.01714 0.18413,0.148893 z m -1.628337,4.258766 c -0.118666,0.0227 -0.174178,0.0222 -0.108336,0.008 0.03606,-0.008 0.07231,-0.0101 0.108336,-0.008 z" /><path
             style="fill:#eae9b7;fill-opacity:1;stroke:none;stroke-width:0.554775;stroke-linecap:round;stroke-linejoin:round;stroke-dasharray:none;paint-order:stroke fill markers"
             d="m 85.94553,93.561158 -0.810704,3.325196 c -0.174858,1.002803 -0.226175,0.904489 -1.058632,0.626983 L 82.433369,96.965688 81.95801,96.024667 c 1.412323,-0.157509 0.834563,-1.06847 1.083182,-1.413173 -0.260503,-0.995525 -1.356417,-1.015903 -2.15405,-1.447751 l 0.172881,-0.862085 c 0.126118,-0.896953 0.142203,-0.848369 0.895365,-0.621828 l 3.654716,1.099292 c 0.581723,0.113894 0.474887,0.210024 0.335426,0.782036 z"
             id="path25516"
             sodipodi:nodetypes="ccccccccccc" /><path
             style="fill:none;fill-opacity:1;stroke:#1a1a1a;stroke-width:0.265;stroke-linecap:round;stroke-linejoin:round;stroke-dasharray:none;stroke-opacity:0.232143;paint-order:stroke fill markers"
             d="m 81.676417,93.75714 c 1.875209,0.05137 1.571413,2.90132 -0.794897,1.948054 2.33431,0.689834 1.262187,2.898164 -0.694135,2.149578 2.877275,0.504039 1.230659,3.296118 -0.649351,2.171968 2.801756,0.69941 1.190036,2.87478 -0.626959,2.1048"
             id="path25518"
             sodipodi:nodetypes="ccccc" /><path
             id="path25520"
             style="fill:#1a1a1a;fill-opacity:0.0892857;stroke:none;stroke-width:0.365001;stroke-linecap:round;stroke-linejoin:round;stroke-dasharray:none;paint-order:stroke fill markers"
             d="m -71.232124,100.92214 c -0.03598,-0.11616 -0.14381,-0.19985 -0.272093,-0.19985 l -0.06844,-3.2e-4 c -0.157888,0 -0.285071,0.12734 -0.285071,0.28522 l -0.152405,1.46009 c 0,0.15788 0.127336,0.28507 0.285224,0.28507 l 0.06831,-1.8e-4 c 0.157888,0 0.285202,-0.12684 0.285202,-0.28473 l 0.152405,-1.46008 c 0,-0.0296 -0.0048,-0.0584 -0.01313,-0.0852 z m -2.00946,-0.11452 c -0.03598,-0.11616 -0.14381,-0.19985 -0.272094,-0.19985 l -0.06881,3.1e-4 c -0.157888,0 -0.284702,0.12671 -0.284702,0.2846 l -0.152405,1.46008 c 0,0.15789 0.126837,0.2852 0.284724,0.2852 l 0.06894,1.9e-4 c 0.157888,0 0.285071,-0.12734 0.285071,-0.28522 l 0.151905,-1.45995 c 0,-0.0296 -0.0043,-0.0586 -0.01263,-0.0854 z m -2.243925,-0.13513 c -0.03598,-0.11615 -0.14381,-0.19984 -0.272094,-0.19984 l -0.06894,-1.9e-4 c -0.157888,0 -0.285071,0.12733 -0.285071,0.28522 l -0.151905,1.45995 c 0,0.15789 0.126836,0.2852 0.284724,0.2852 l 0.06881,-3e-4 c 0.157888,0 0.284701,-0.12671 0.284701,-0.2846 l 0.152405,-1.46008 c 0,-0.0296 -0.0043,-0.0586 -0.01263,-0.0854 z m -2.158941,-0.059 c -0.03598,-0.11615 -0.143809,-0.19984 -0.272093,-0.19984 l -0.06894,-1.9e-4 c -0.157888,0 -0.284571,0.1272 -0.284571,0.28509 l -0.152405,1.46008 c 0,0.15789 0.126836,0.2852 0.284724,0.2852 l 0.06881,-3.1e-4 c 0.157888,0 0.285071,-0.12733 0.285071,-0.28522 l 0.151905,-1.45995 c 0,-0.0296 -0.0042,-0.0581 -0.0125,-0.0849 z"
             transform="rotate(-75.394325)"
             sodipodi:nodetypes="sccccccccssccccccccccccccccccccccccccccccccc" /><path
             style="fill:#e8d5c6;fill-opacity:1;stroke:none;stroke-width:0.365001;stroke-linecap:round;stroke-linejoin:round;stroke-dasharray:none;paint-order:stroke fill markers"
             d="m 79.560426,100.56414 c 2.237704,0.70646 0.239557,1.55897 -0.263265,1.21411 0.04649,-0.39905 -0.124954,-0.76827 0.263265,-1.21411 z"
             id="path25522"
             sodipodi:nodetypes="ccc" /><path
             style="fill:#e8d5c6;fill-opacity:1;stroke:none;stroke-width:0.365001;stroke-linecap:round;stroke-linejoin:round;stroke-dasharray:none;paint-order:stroke fill markers"
             d="m 80.198582,98.224234 c 2.109713,0.632951 0.119513,2.170846 -0.358264,1.388265 -0.286845,-0.462755 -0.115703,-0.92551 0.358264,-1.388265 z"
             id="path25524"
             sodipodi:nodetypes="ccc" /><path
             style="fill:#e8d5c6;fill-opacity:1;stroke:none;stroke-width:0.365001;stroke-linecap:round;stroke-linejoin:round;stroke-dasharray:none;paint-order:stroke fill markers"
             d="m 80.814346,96.041069 c 2.109713,0.632951 0.119513,2.170845 -0.358264,1.388265 -0.26602,-0.462755 0.01489,-0.92551 0.358264,-1.388265 z"
             id="path25526"
             sodipodi:nodetypes="ccc" /><path
             style="fill:#e8d5c6;fill-opacity:1;stroke:none;stroke-width:0.365001;stroke-linecap:round;stroke-linejoin:round;stroke-dasharray:none;paint-order:stroke fill markers"
             d="m 81.53647,94.18258 c 1.970193,0.479963 0.219277,1.706532 -0.363862,1.220329 -0.267733,-0.477793 0.08138,-0.84298 0.363862,-1.220329 z"
             id="path25528"
             sodipodi:nodetypes="ccc" /></g></g><path
         id="path27320"
         style="opacity:1;fill:#f5cd03;fill-opacity:1;stroke:none;stroke-width:0.511683;stroke-linecap:round;stroke-linejoin:round;stroke-dasharray:none;stroke-opacity:0.122449;paint-order:stroke fill markers"
         d="m 94.480343,-254.46356 -0.568957,0.52659 c -0.500338,1.71264 -0.910258,3.11811 -1.435572,4.91236 l 1.347722,1.79937 0.503845,-2.54351 2.454114,-0.83716 -2.262911,-1.26504 z" /><path
         style="opacity:1;fill:none;fill-opacity:1;stroke:#ffb500;stroke-width:0.465;stroke-linecap:round;stroke-linejoin:round;stroke-dasharray:none;stroke-opacity:1;paint-order:stroke fill markers"
         d="m 64.216149,-260.80143 c 0.21981,-6.84768 -1.98507,-15.76738 11.64355,-20.42099"
         id="path27713"
         sodipodi:nodetypes="cc" /><path
         style="opacity:1;fill:none;fill-opacity:1;stroke:#ffb500;stroke-width:0.465;stroke-linecap:round;stroke-linejoin:round;stroke-dasharray:none;stroke-opacity:1;paint-order:stroke fill markers"
         d="m 66.813559,-278.71458 c -5.42881,4.45822 -3.69411,11.24457 -2.59741,17.82358"
         id="path27715"
         sodipodi:nodetypes="cc" /><path
         style="opacity:1;fill:none;fill-opacity:1;stroke:#ffb500;stroke-width:0.465;stroke-linecap:round;stroke-linejoin:round;stroke-dasharray:none;stroke-opacity:1;paint-order:stroke fill markers"
         d="m 59.916999,-276.65457 c 2.084479,5.40201 2.945795,10.39629 4.38872,15.58444"
         id="path27717"
         sodipodi:nodetypes="cc" /><path
         style="opacity:1;fill:none;fill-opacity:1;stroke:#ffb500;stroke-width:0.465;stroke-linecap:round;stroke-linejoin:round;stroke-dasharray:none;stroke-opacity:1;paint-order:stroke fill markers"
         d="m 53.020439,-274.86325 c 6.51798,-0.75964 8.77729,7.17551 11.37484,14.42008"
         id="path27719"
         sodipodi:nodetypes="cc" /><path
         style="opacity:1;fill:none;fill-opacity:1;stroke:#ffb500;stroke-width:0.465;stroke-linecap:round;stroke-linejoin:round;stroke-dasharray:none;stroke-opacity:1;paint-order:stroke fill markers"
         d="m 43.974299,-272.53454 c 6.00044,-4.32692 18.69764,2.91521 20.33142,11.82268"
         id="path27721"
         sodipodi:nodetypes="cc" /></g></g></svg>
